<svg xmlns="http://www.w3.org/2000/svg" version="1.1" viewBox="0.00 0.00 1024.00 334.00">
<path fill="#c2b067" d="   M 717.92 260.59   Q 716.73 261.30 715.59 262.59   Q 706.52 272.86 700.08 277.81   C 692.94 283.30 686.16 286.66 677.52 287.24   Q 675.74 287.36 674.47 287.01   Q 672.70 286.51 671.48 286.49   Q 669.57 286.46 666.79 285.20   Q 657.01 280.78 653.89 270.36   C 652.18 264.65 652.39 260.47 652.71 252.01   A 1.67 1.64 -29.2 0 1 652.95 251.19   Q 653.65 250.00 653.20 249.13   A 0.51 0.51 0.0 0 0 652.36 249.02   Q 647.91 254.06 640.41 262.64   Q 636.80 266.77 628.83 274.28   Q 621.98 280.74 612.70 284.92   Q 610.91 285.72 608.06 285.83   A 2.10 2.10 0.0 0 0 607.26 286.03   Q 605.05 287.05 602.68 286.02   A 2.65 2.54 -29.5 0 0 601.97 285.84   Q 598.81 285.54 597.88 285.01   Q 586.80 278.70 584.94 264.75   A 4.53 4.36 -60.6 0 0 584.70 263.82   Q 583.75 261.46 584.06 258.17   A 0.53 0.52 80.3 0 0 583.32 257.64   Q 582.89 257.84 582.52 258.91   A 1.63 1.61 -14.5 0 1 582.18 259.48   Q 577.74 264.13 573.28 269.51   Q 572.56 270.38 570.99 271.35   A 6.57 6.40 6.5 0 0 569.92 272.18   Q 562.81 279.06 554.93 282.56   Q 550.76 284.41 550.74 284.43   A 1.51 1.51 0.0 0 1 549.56 284.97   Q 548.39 284.96 547.92 285.28   Q 547.59 285.50 546.20 285.82   Q 534.75 288.41 525.08 282.19   C 523.47 281.16 522.55 280.03 520.89 278.98   A 3.86 3.46 81.8 0 1 520.21 278.41   Q 516.06 273.96 513.67 268.32   Q 511.54 263.31 511.47 256.59   Q 511.40 249.74 512.51 244.29   Q 513.18 240.93 514.11 238.23   Q 514.92 235.85 514.92 235.84   Q 516.27 231.88 516.94 230.41   Q 517.86 228.40 519.65 224.49   A 0.39 0.39 0.0 0 0 519.20 223.95   Q 518.85 224.04 518.46 224.53   A 1.02 1.01 -79.0 0 1 518.02 224.83   Q 512.34 226.71 512.31 226.76   Q 512.24 226.90 510.67 227.04   Q 510.12 227.09 509.53 227.55   Q 508.95 228.01 508.39 227.89   Q 506.69 227.54 505.65 228.33   A 1.21 1.21 0.0 0 1 504.90 228.59   L 497.91 228.59   A 2.10 2.05 -30.1 0 1 496.92 228.34   Q 495.31 227.50 493.64 227.80   A 1.28 1.27 -79.3 0 0 492.77 228.40   Q 488.75 235.08 485.80 239.04   Q 479.25 247.80 469.89 258.86   Q 461.26 269.05 449.38 278.68   Q 446.70 280.85 443.56 282.64   Q 438.08 285.76 437.47 286.10   Q 434.98 287.49 426.30 289.98   A 2.68 2.59 34.6 0 1 425.58 290.10   L 418.26 290.39   A 0.21 0.21 0.0 0 1 418.10 290.34   Q 417.72 290.02 415.62 289.75   Q 408.06 288.78 402.24 282.96   Q 398.25 278.97 395.82 271.68   C 394.30 267.12 394.75 258.95 394.84 255.62   A 35.98 35.79 -37.3 0 1 395.85 248.34   L 397.63 241.11   A 0.41 0.41 0.0 0 0 396.91 240.77   Q 388.70 251.56 380.48 259.48   C 379.64 260.28 379.01 261.39 378.21 262.21   Q 371.86 268.73 363.23 275.75   Q 340.55 294.19 312.11 289.24   C 308.52 288.62 305.67 287.20 302.47 286.34   A 3.93 3.90 -22.6 0 1 301.54 285.96   Q 285.71 276.89 284.32 258.42   C 284.23 257.23 284.57 255.92 284.32 255.14   A 0.35 0.35 0.0 0 0 283.73 255.01   Q 272.19 267.50 262.68 276.15   Q 252.75 285.18 239.38 290.35   Q 237.51 291.08 230.26 291.99   Q 222.66 292.94 213.41 289.41   A 1.23 1.20 -19.0 0 1 213.20 289.31   L 207.86 286.15   A 0.28 0.10 19.3 0 0 207.81 286.11   Q 198.63 278.38 195.50 266.79   Q 195.11 265.37 195.01 264.36   Q 194.84 262.72 194.33 262.22   A 0.83 0.79 21.7 0 1 194.09 261.70   L 193.35 253.08   A 0.30 0.30 0.0 0 0 192.80 252.93   Q 179.83 271.27 168.58 284.08   Q 163.78 289.55 152.54 300.29   Q 140.93 311.36 126.47 319.91   Q 122.61 322.19 119.77 323.49   Q 113.83 326.19 112.84 326.63   Q 109.60 328.04 104.55 329.16   A 0.87 0.86 11.8 0 0 104.05 329.48   Q 103.82 329.76 103.52 329.88   C 102.56 330.26 101.79 329.67 100.74 330.37   A 1.32 1.25 -66.4 0 1 100.24 330.58   Q 87.54 333.33 74.38 333.12   A 4.37 4.34 54.2 0 1 73.11 332.91   C 70.56 332.08 66.25 332.82 64.85 332.14   C 63.41 331.45 60.93 331.64 59.18 331.12   Q 44.85 326.88 35.58 321.48   Q 25.95 315.87 17.61 305.83   Q 11.25 298.17 7.41 287.87   Q 3.43 277.18 2.65 267.75   Q 1.80 257.55 3.14 244.81   A 2.70 2.70 0.0 0 1 3.45 243.83   Q 3.94 242.92 3.96 242.50   Q 4.11 239.47 5.37 235.99   A 5.20 4.73 -32.8 0 0 5.57 235.24   Q 6.31 231.26 7.08 229.10   Q 17.85 198.70 39.01 179.00   Q 55.52 163.63 75.84 155.15   Q 92.62 148.16 109.02 145.03   Q 111.05 144.64 112.35 143.99   A 0.29 0.29 0.0 0 0 112.32 143.46   Q 98.79 138.79 90.76 132.82   Q 77.46 122.93 73.48 105.83   A 4.44 4.27 40.3 0 1 73.36 104.66   Q 73.42 102.97 72.99 101.46   Q 72.51 99.73 72.52 98.34   Q 72.63 84.17 79.02 71.78   Q 83.96 62.21 89.51 55.48   Q 92.57 51.79 97.31 46.65   C 100.11 43.62 103.60 40.81 106.36 38.36   Q 107.09 37.71 108.12 36.87   Q 124.60 23.49 144.60 14.67   Q 156.94 9.23 165.46 6.97   Q 175.55 4.27 182.31 2.77   Q 184.21 2.35 186.00 2.41   C 187.23 2.46 188.20 1.62 189.40 1.68   Q 191.16 1.77 198.06 1.11   Q 205.87 0.36 218.50 0.92   Q 218.88 0.94 219.38 1.34   A 1.22 1.21 -27.0 0 0 220.26 1.62   Q 222.24 1.50 224.68 2.07   Q 232.92 4.00 238.98 7.00   C 242.82 8.91 248.16 12.52 250.78 16.81   Q 253.32 20.96 254.21 23.68   A 6.19 5.92 -57.8 0 1 254.49 25.06   C 254.74 28.00 255.43 30.36 255.37 33.33   Q 255.19 43.69 249.15 52.16   Q 246.26 56.20 241.53 57.84   A 2.79 2.76 -54.3 0 1 240.52 58.01   C 237.95 57.97 234.54 58.54 232.59 56.82   Q 230.93 55.36 230.47 53.05   Q 230.13 51.36 230.87 49.93   A 3.48 3.48 0.0 0 0 231.20 48.94   Q 231.66 46.39 232.12 45.31   Q 233.45 42.23 234.60 37.70   Q 237.11 27.84 228.24 23.37   A 3.97 3.38 -19.8 0 0 227.52 23.10   Q 224.33 22.30 224.02 22.04   A 1.18 1.15 60.6 0 0 223.14 21.78   Q 221.37 22.02 220.07 21.29   A 2.30 2.26 59.1 0 0 218.96 21.00   L 208.58 21.00   A 0.39 0.33 -58.3 0 0 208.37 21.07   Q 207.51 21.61 204.77 21.76   Q 200.71 21.97 192.70 23.97   A 1.13 1.07 -46.6 0 1 192.34 23.99   C 191.34 23.89 190.70 24.70 189.63 25.04   Q 176.32 29.28 164.77 36.06   Q 147.42 46.24 131.96 61.97   Q 131.81 62.12 131.51 62.69   A 3.36 3.11 -10.3 0 1 130.96 63.42   Q 121.90 72.58 115.35 84.17   Q 114.11 86.37 113.69 87.47   Q 112.93 89.51 112.07 90.63   A 0.55 0.34 -31.7 0 0 112.01 90.75   L 109.79 97.24   A 3.31 3.31 0.0 0 0 109.62 98.00   C 109.38 100.81 109.19 108.11 110.45 112.16   C 112.97 120.29 118.30 126.39 125.51 131.36   C 128.47 133.40 132.96 134.83 136.00 135.68   Q 143.76 137.86 156.10 137.62   A 3.46 3.33 50.6 0 1 157.03 137.73   C 157.69 137.89 157.91 138.53 159.07 138.41   C 162.18 138.08 164.37 139.75 165.90 141.97   C 168.19 145.28 163.65 149.39 160.69 150.16   Q 155.97 151.38 153.61 151.77   C 152.42 151.97 151.12 151.92 150.49 152.32   Q 149.67 152.85 149.23 152.87   Q 148.27 152.92 141.89 154.36   Q 137.16 155.43 134.65 156.29   C 130.11 157.84 125.84 158.75 121.31 160.64   Q 113.91 163.72 111.06 165.07   Q 90.12 175.01 74.39 191.87   Q 50.67 217.28 45.37 251.82   Q 44.85 255.22 44.91 257.83   C 45.01 262.10 44.61 266.99 45.78 271.65   C 46.57 274.74 46.98 278.17 48.03 281.28   Q 51.16 290.60 57.18 297.75   Q 60.93 302.22 65.99 305.42   Q 70.60 308.35 76.73 310.07   Q 79.69 310.91 80.62 311.25   A 2.93 2.76 52.7 0 0 81.64 311.42   Q 83.07 311.41 88.56 311.49   C 94.94 311.59 101.10 309.66 107.23 307.42   Q 108.42 306.99 115.06 303.66   Q 119.12 301.62 122.57 299.31   Q 133.39 292.07 143.75 282.51   Q 153.99 273.06 163.60 261.85   Q 182.62 239.65 198.68 214.80   A 9.39 9.22 71.1 0 0 199.68 212.71   Q 210.78 179.19 215.06 169.26   Q 215.19 168.96 217.96 161.92   Q 229.14 133.56 246.97 100.72   Q 253.94 87.88 260.47 77.57   C 261.67 75.67 262.91 74.20 264.26 72.00   Q 270.46 61.86 280.06 50.80   C 287.99 41.66 298.43 33.47 309.39 28.65   Q 315.67 25.89 323.91 25.83   A 3.60 3.57 52.3 0 1 324.97 25.97   Q 327.02 26.55 329.68 26.69   A 3.35 3.33 58.7 0 1 330.94 27.00   Q 335.21 28.96 336.52 30.13   Q 342.72 35.71 344.68 44.59   C 345.04 46.21 344.92 47.58 345.38 49.53   Q 345.78 51.26 345.05 53.19   A 2.28 2.17 -35.9 0 0 344.90 53.99   L 344.90 57.68   A 1.29 1.04 57.4 0 1 344.87 57.95   Q 342.72 68.47 341.48 71.75   Q 336.37 85.34 328.78 98.80   Q 313.29 126.24 292.86 150.36   Q 291.53 151.94 290.68 153.02   C 288.58 155.70 286.02 158.02 283.97 160.53   Q 281.54 163.49 279.54 165.47   Q 266.02 178.82 263.35 181.35   Q 262.48 182.18 260.55 183.65   A 0.96 0.37 -20.8 0 0 260.46 183.73   L 245.33 197.96   A 0.80 0.75 -6.3 0 0 245.15 198.17   C 244.35 199.53 242.33 200.38 240.90 201.75   Q 238.46 204.11 235.54 206.15   A 4.37 4.37 0.0 0 0 233.91 208.25   C 230.39 217.68 226.15 228.62 225.05 237.26   Q 224.68 240.23 224.21 241.61   A 2.37 2.25 56.1 0 0 224.10 242.25   Q 223.98 246.35 223.89 251.88   Q 223.84 254.86 224.79 258.87   Q 225.97 263.82 229.52 267.60   Q 232.02 270.26 234.84 270.76   Q 238.36 271.39 240.96 270.12   Q 251.29 265.10 259.97 256.71   Q 270.82 246.20 278.52 236.76   Q 286.70 226.72 290.87 221.58   Q 291.76 220.49 292.40 219.03   Q 298.48 205.08 306.05 193.56   Q 311.88 184.67 316.28 180.02   Q 317.10 179.15 318.61 177.36   Q 321.64 173.78 327.89 168.62   Q 338.34 160.00 351.28 156.73   Q 351.70 156.63 351.91 156.47   Q 352.30 156.17 352.50 156.17   Q 360.46 156.00 367.01 156.06   Q 368.16 156.07 368.92 156.63   A 1.92 1.82 -21.2 0 0 369.73 156.96   Q 375.41 157.76 378.81 160.24   Q 380.96 161.81 381.54 162.15   A 3.62 3.55 -3.6 0 1 382.58 163.05   Q 385.93 167.25 386.82 168.97   Q 387.78 170.80 388.55 174.13   Q 389.16 176.79 389.15 179.52   Q 389.09 193.20 381.75 205.02   Q 372.93 219.21 357.36 227.84   Q 348.99 232.49 339.23 234.70   Q 333.14 236.09 329.70 235.91   Q 329.08 235.87 326.41 236.34   Q 324.54 236.66 321.83 235.81   A 2.22 2.21 19.1 0 0 319.10 237.13   C 318.33 239.14 316.22 244.66 316.62 246.93   Q 316.74 247.57 316.30 247.90   A 0.97 0.97 0.0 0 0 315.92 248.67   Q 315.93 250.55 315.45 255.24   Q 315.26 257.12 316.78 264.45   A 3.89 3.81 -65.4 0 0 317.13 265.42   Q 320.07 271.14 326.83 273.22   C 329.35 273.99 331.81 273.60 334.50 273.66   A 3.27 2.89 -48.5 0 0 335.48 273.54   Q 340.99 272.01 344.15 270.34   Q 348.46 268.06 354.02 264.05   Q 354.80 263.48 362.25 256.94   Q 365.70 253.90 369.92 249.24   Q 372.12 246.81 377.81 240.94   A 4.34 4.34 0.0 0 0 378.49 240.03   Q 379.59 238.13 381.88 236.34   A 2.31 2.29 -7.9 0 0 382.58 235.42   Q 382.85 234.77 386.04 231.07   Q 388.83 227.83 395.51 218.52   Q 411.05 196.86 425.90 166.63   Q 429.26 159.80 437.12 157.16   Q 438.37 156.75 439.06 156.49   Q 440.40 156.00 441.01 156.08   Q 444.14 156.55 446.60 157.36   Q 455.69 160.33 455.88 170.49   A 3.33 3.11 -39.3 0 1 455.75 171.46   C 455.03 173.97 454.89 175.61 453.69 178.28   Q 448.32 190.18 443.74 199.74   Q 439.72 208.12 435.57 217.83   Q 432.55 224.89 430.78 229.85   Q 427.63 238.65 426.65 242.09   Q 424.05 251.30 424.70 261.23   Q 424.76 262.12 426.78 266.38   A 2.16 2.13 -84.3 0 0 427.40 267.15   Q 430.50 269.57 434.03 268.83   Q 436.38 268.33 440.55 265.55   Q 446.79 261.41 453.89 253.89   Q 470.31 236.52 482.87 216.22   A 1.20 1.17 -36.0 0 0 483.02 215.35   Q 480.47 204.09 483.09 192.00   Q 485.32 181.72 490.90 170.95   Q 495.99 161.10 504.27 155.28   Q 507.04 153.34 512.98 152.46   A 2.96 2.88 -42.4 0 1 513.97 152.49   Q 520.45 153.88 521.96 159.94   A 1.57 1.08 48.6 0 1 522.00 160.27   L 522.00 167.64   A 3.43 3.39 55.4 0 1 521.79 168.82   Q 517.11 181.74 511.49 192.51   Q 510.20 194.98 502.33 209.15   A 2.01 2.00 55.8 0 0 502.10 210.39   Q 502.66 214.22 505.66 215.42   A 2.08 2.06 51.0 0 0 506.75 215.54   Q 519.43 213.49 528.93 205.28   A 3.27 3.25 9.6 0 1 529.54 204.85   Q 531.97 203.50 533.39 201.16   Q 538.62 192.52 545.52 184.17   C 549.02 179.93 553.84 175.45 557.22 172.23   Q 560.57 169.04 567.66 164.43   Q 574.40 160.05 582.28 157.75   Q 589.64 155.60 595.43 156.12   Q 602.26 156.73 608.40 159.09   Q 612.46 160.64 615.58 164.43   C 617.26 166.47 619.13 168.02 618.88 169.88   A 0.73 0.73 0.0 0 0 620.15 170.46   C 623.30 166.93 628.27 163.18 633.11 162.12   Q 635.58 161.58 636.53 161.20   A 2.44 2.43 -54.5 0 1 637.59 161.02   Q 643.72 161.38 649.02 164.41   A 1.42 1.32 0.3 0 1 649.50 164.86   L 651.58 168.03   A 1.30 1.26 31.3 0 1 651.78 168.81   Q 651.51 172.42 650.55 173.84   Q 632.23 201.21 619.01 231.15   C 615.85 238.30 613.44 245.66 611.93 252.41   Q 610.87 257.15 612.00 264.00   A 0.88 0.88 0.0 0 0 612.99 264.73   Q 613.65 264.63 613.99 264.87   A 1.15 1.13 46.1 0 0 615.22 264.90   Q 619.36 262.36 619.90 261.68   Q 621.11 260.16 622.36 259.74   A 1.80 1.77 12.5 0 0 623.13 259.26   Q 632.27 249.51 633.60 247.61   Q 634.98 245.64 636.06 244.73   C 637.32 243.67 637.25 242.41 638.45 241.59   Q 638.71 241.41 639.49 240.37   C 650.23 226.09 655.95 218.76 660.14 212.67   Q 662.39 209.39 663.47 208.35   A 2.46 2.45 76.1 0 0 664.11 207.28   Q 664.41 206.24 667.00 199.00   Q 667.27 198.24 667.71 197.80   A 1.21 1.21 0.0 0 0 668.04 197.11   Q 668.16 196.09 670.62 190.13   Q 684.18 157.28 699.45 124.89   A 0.62 0.62 0.0 0 0 698.89 124.01   Q 690.58 123.94 686.74 124.03   C 681.50 124.16 675.87 122.50 674.06 117.49   Q 671.39 110.14 677.38 106.02   A 3.11 3.08 -65.3 0 1 678.74 105.51   C 680.77 105.29 683.21 104.50 685.30 104.60   C 686.68 104.67 687.26 103.89 688.59 103.86   Q 690.86 103.81 691.42 103.52   C 693.48 102.44 695.82 103.61 697.71 102.44   A 1.13 1.12 -61.2 0 1 698.25 102.28   L 704.60 102.10   A 0.76 0.73 -67.8 0 0 705.10 101.88   Q 705.26 101.73 705.29 101.70   A 1.83 1.73 -57.2 0 1 706.02 101.52   L 710.22 101.38   A 0.43 0.42 86.8 0 0 710.63 100.91   Q 710.56 100.21 711.36 98.88   Q 713.38 95.49 717.01 88.27   Q 719.88 82.59 722.44 78.71   Q 723.13 77.67 724.37 74.26   C 726.29 68.98 729.56 64.20 733.68 60.45   Q 734.68 59.54 739.54 57.36   A 3.69 3.42 28.8 0 1 740.66 57.08   Q 749.48 56.33 755.89 61.68   Q 757.46 62.99 758.81 66.28   A 3.34 3.23 32.7 0 1 759.04 67.25   Q 759.44 72.25 756.52 77.07   Q 750.06 87.74 746.77 95.51   Q 746.44 96.29 746.16 96.40   Q 745.81 96.54 745.73 96.74   A 0.45 0.45 0.0 0 0 746.12 97.36   C 750.04 97.58 754.02 96.87 757.61 96.71   Q 765.86 96.35 770.67 96.83   Q 774.85 97.25 777.53 100.32   Q 782.91 106.45 779.45 113.25   Q 777.66 116.78 774.42 118.06   Q 771.38 119.26 765.99 119.01   A 1.80 1.75 -57.2 0 0 765.08 119.22   Q 763.91 119.87 763.53 119.86   Q 758.19 119.72 753.89 120.75   A 1.56 1.39 -48.4 0 1 753.55 120.79   L 747.16 120.79   A 0.88 0.86 27.3 0 0 746.67 120.94   Q 746.17 121.31 745.63 121.33   Q 742.01 121.48 734.96 121.55   A 0.91 0.90 -74.6 0 0 734.21 121.98   Q 733.40 123.33 732.72 124.74   Q 714.17 162.82 707.39 179.57   Q 706.12 182.71 705.97 182.97   Q 703.93 186.46 701.91 192.57   A 6.25 5.61 -26.0 0 1 701.56 193.43   Q 700.36 195.83 699.77 197.26   Q 692.64 214.65 687.15 232.37   Q 683.54 244.04 681.91 253.14   Q 681.08 257.77 681.66 264.18   A 2.45 2.43 27.0 0 0 682.01 265.24   C 683.25 267.25 684.44 268.75 686.93 267.74   Q 690.96 266.12 694.42 262.63   C 696.98 260.05 698.49 258.72 701.15 255.62   Q 717.72 236.29 722.84 228.15   A 2.68 2.33 74.7 0 0 723.10 227.61   L 725.34 221.26   A 2.27 1.84 -25.0 0 1 725.52 220.89   Q 726.62 219.11 726.93 217.46   A 4.08 4.08 0.0 0 1 727.25 216.50   Q 735.90 198.56 744.23 186.72   Q 745.21 185.32 751.25 178.28   C 756.85 171.75 762.98 166.92 769.86 162.63   Q 774.01 160.04 778.73 158.54   Q 782.33 157.40 786.77 156.17   A 2.76 2.67 -49.4 0 1 787.72 156.08   Q 788.79 156.17 796.38 155.95   Q 804.22 155.72 812.46 160.21   A 2.39 2.24 -4.3 0 1 813.13 160.75   C 814.21 162.03 815.66 162.46 816.71 163.92   Q 818.59 166.53 818.73 166.72   C 822.50 172.08 823.33 179.07 822.19 185.47   Q 821.42 189.81 819.66 194.87   Q 817.82 200.18 815.61 203.72   Q 800.65 227.59 773.64 234.61   Q 768.63 235.91 765.22 235.97   Q 764.00 235.99 758.55 236.42   A 2.24 2.08 50.0 0 1 757.66 236.31   Q 755.49 235.56 754.31 235.84   A 2.64 2.63 -89.4 0 0 752.44 237.68   L 749.45 248.22   A 0.35 0.31 -41.4 0 0 749.44 248.30   C 748.90 255.29 748.09 261.10 751.27 266.48   Q 755.15 273.06 763.56 273.65   Q 765.27 273.77 767.76 273.70   A 4.49 4.20 -51.3 0 0 768.81 273.55   Q 774.90 271.92 778.97 269.70   C 782.06 268.02 786.57 264.95 789.29 262.63   C 793.72 258.85 796.11 257.26 799.32 253.84   C 802.03 250.95 808.06 245.52 811.61 240.95   C 813.31 238.75 816.14 236.09 818.41 233.31   Q 822.66 228.10 825.94 224.72   Q 827.24 223.39 829.47 219.25   Q 832.55 213.56 836.95 205.71   Q 847.37 187.09 862.43 173.17   C 871.66 164.64 884.32 157.20 896.52 156.12   Q 901.35 155.69 906.77 156.96   Q 912.18 158.23 915.69 161.68   Q 919.80 165.71 921.39 170.50   A 0.01 0.01 0.0 0 0 921.41 170.50   L 934.56 140.78   A 0.22 0.21 61.8 0 0 934.59 140.67   Q 934.65 140.03 934.81 139.77   Q 935.40 138.80 939.94 128.66   Q 961.78 79.82 989.09 25.47   Q 989.54 24.59 990.68 22.74   Q 991.37 21.63 992.36 20.08   Q 995.03 15.89 999.25 14.46   Q 1003.03 13.17 1008.27 14.49   Q 1015.64 16.35 1019.96 19.50   Q 1025.01 23.18 1022.89 30.13   Q 1022.43 31.64 1020.06 35.60   Q 1018.98 37.39 1017.13 41.02   Q 1015.11 44.99 1012.96 48.88   Q 1009.48 55.21 1008.71 56.71   Q 999.51 74.51 992.80 87.55   Q 969.42 132.99 949.23 179.12   Q 947.46 183.16 946.97 184.53   C 945.85 187.60 944.50 189.53 943.37 192.73   Q 942.12 196.25 939.83 200.85   A 5.68 5.58 -23.9 0 0 939.47 201.76   C 938.42 205.28 936.49 208.87 935.47 211.98   Q 934.17 215.89 933.34 217.64   Q 931.62 221.23 930.53 224.95   C 929.48 228.55 927.09 233.44 926.14 237.66   Q 925.86 238.88 924.40 242.96   Q 923.19 246.31 922.44 250.26   Q 922.42 250.36 922.42 251.23   Q 922.43 251.90 922.01 252.23   A 0.62 0.60 71.6 0 0 921.78 252.71   C 921.80 256.17 919.87 261.08 921.93 265.08   A 1.14 1.13 73.0 0 0 923.05 265.68   Q 924.74 265.50 926.49 264.23   Q 932.64 259.76 939.49 251.99   Q 944.84 245.92 950.76 238.02   Q 962.28 222.64 968.54 213.93   L 968.55 213.93   Q 973.84 205.87 974.61 204.92   Q 975.22 204.18 977.36 200.66   Q 979.03 197.90 981.60 195.75   Q 982.78 194.76 984.88 194.77   A 0.78 0.73 -30.9 0 1 985.20 194.84   L 987.10 195.68   A 2.56 2.55 -78.2 0 1 988.62 198.02   L 988.62 205.88   A 1.28 1.08 58.7 0 1 988.56 206.26   Q 986.02 213.34 984.05 217.10   C 982.59 219.85 979.36 225.17 976.65 228.75   Q 962.90 246.95 950.44 262.45   Q 942.71 272.07 935.10 279.09   Q 930.85 283.00 923.33 286.41   A 1.40 1.39 -50.4 0 1 922.40 286.50   Q 921.89 286.37 921.42 286.76   A 0.77 0.70 10.9 0 1 921.19 286.90   Q 915.77 288.95 909.15 287.02   Q 906.52 286.26 905.58 285.62   Q 899.80 281.70 897.90 277.41   Q 895.68 272.37 894.82 266.40   Q 894.10 261.35 894.82 254.85   A 0.38 0.38 0.0 0 0 894.14 254.58   Q 888.64 261.90 883.14 267.63   C 875.32 275.78 866.22 283.05 855.74 285.70   Q 854.90 285.91 852.69 286.23   Q 847.88 286.94 843.64 286.17   Q 839.36 285.39 835.18 282.98   Q 826.76 278.12 822.74 268.70   A 0.43 0.30 34.7 0 1 822.71 268.62   L 821.23 262.54   A 0.24 0.08 63.4 0 0 821.22 262.47   L 820.21 255.30   A 0.35 0.35 0.0 0 0 819.61 255.11   Q 809.42 266.08 799.53 274.28   Q 786.16 285.38 771.48 288.72   Q 762.43 290.78 753.50 290.12   Q 749.72 289.84 746.55 289.70   A 4.53 4.21 51.9 0 1 745.54 289.54   Q 735.44 286.79 733.79 285.68   Q 729.93 283.09 729.52 282.86   A 8.81 8.77 89.0 0 1 726.42 279.85   C 725.40 278.18 723.95 276.95 722.81 275.06   Q 718.85 268.50 718.39 260.83   A 0.31 0.31 0.0 0 0 717.92 260.59   Z   M 245.99 180.06   Q 252.01 174.76 258.14 168.00   Q 264.41 161.08 264.91 160.55   Q 279.31 144.98 292.56 127.05   Q 294.01 125.09 294.37 124.90   A 0.60 0.60 0.0 0 0 294.66 124.54   Q 295.04 123.35 299.96 116.72   Q 302.20 113.70 310.76 99.85   Q 315.82 91.68 318.74 85.37   Q 323.82 74.41 325.12 70.13   Q 327.33 62.84 327.72 59.50   C 328.23 55.01 328.53 50.91 326.03 47.66   A 2.42 2.41 59.9 0 0 323.19 46.90   Q 319.89 48.26 317.17 50.28   Q 314.32 52.39 312.04 54.92   Q 305.37 62.30 298.99 71.75   Q 298.25 72.84 298.10 72.92   C 297.13 73.42 297.01 74.53 296.35 75.57   Q 283.33 96.06 274.58 113.81   Q 272.15 118.73 271.88 118.99   A 1.33 1.31 72.0 0 0 271.49 119.77   Q 271.41 120.41 271.07 121.10   Q 266.66 130.01 262.69 138.70   Q 253.18 159.54 245.37 179.63   A 0.39 0.39 0.0 0 0 245.99 180.06   Z   M 850.96 251.27   C 850.53 256.40 850.08 267.03 857.49 267.29   Q 860.17 267.38 864.57 264.38   Q 871.63 259.56 875.90 254.40   Q 877.71 252.21 880.73 248.74   Q 883.26 245.82 891.40 233.51   C 893.29 230.67 895.05 226.73 897.11 223.89   A 2.32 2.30 69.0 0 0 897.51 222.98   Q 897.80 221.52 899.47 218.88   C 901.35 215.92 902.24 212.32 904.05 209.25   A 7.75 7.52 -21.0 0 0 904.69 207.87   Q 905.96 204.29 908.57 196.11   Q 909.12 194.40 909.91 187.08   A 1.69 1.67 -29.3 0 1 910.08 186.49   C 910.90 184.89 909.81 183.63 909.74 181.96   C 909.52 176.70 907.30 171.87 901.17 172.94   A 3.89 3.75 -66.1 0 0 899.67 173.55   Q 898.77 174.16 897.17 174.52   A 4.21 4.04 -66.7 0 0 895.84 175.08   Q 888.41 179.92 887.09 181.36   Q 883.38 185.40 881.49 187.29   A 3.50 3.47 83.4 0 0 880.91 188.03   Q 879.38 190.56 876.87 193.18   A 1.23 1.22 74.4 0 0 876.57 193.72   Q 876.44 194.30 875.32 195.79   Q 871.59 200.76 867.05 209.43   A 1.09 1.07 -2.7 0 1 866.69 209.82   C 865.88 210.33 865.86 211.31 865.51 212.04   Q 858.52 226.69 857.49 229.68   Q 855.82 234.52 853.94 239.98   Q 851.85 246.07 851.37 250.61   Q 851.37 250.62 851.37 250.63   L 851.15 250.85   A 0.71 0.68 -21.9 0 0 850.96 251.27   Z   M 603.01 195.65   Q 603.66 192.60 603.96 192.02   A 2.38 2.29 -33.8 0 0 604.20 190.91   Q 604.02 186.94 604.84 185.19   A 1.21 1.19 -36.4 0 0 604.95 184.50   L 604.06 177.30   A 0.83 0.78 20.3 0 0 603.81 176.80   Q 603.41 176.43 603.14 175.84   Q 601.46 172.20 597.24 172.97   Q 593.94 173.57 590.88 175.37   Q 584.78 178.97 580.25 183.73   Q 572.77 191.60 566.40 201.14   Q 554.88 218.41 546.62 236.98   Q 545.67 239.11 544.47 242.75   Q 543.05 247.10 542.33 248.52   A 1.65 1.61 -34.3 0 0 542.16 249.36   Q 542.32 251.20 541.71 252.26   A 2.27 2.24 -30.2 0 0 541.40 253.40   C 541.37 257.24 540.97 260.26 542.32 263.43   C 545.47 270.84 552.69 267.94 557.90 264.26   Q 565.12 259.18 570.63 252.62   Q 581.54 239.63 590.03 224.56   Q 591.99 221.07 596.19 212.85   C 598.65 208.03 600.34 203.03 602.47 197.99   Q 602.54 197.83 603.01 195.65   Z   M 757.69 225.31   L 761.75 225.31   A 0.48 0.48 0.0 0 0 762.18 225.04   Q 762.44 224.47 763.09 224.57   C 764.26 224.75 766.17 223.95 767.11 223.71   A 4.59 4.38 -63.0 0 0 768.02 223.39   L 774.55 220.42   A 0.25 0.15 -58.3 0 0 774.63 220.38   C 784.40 214.20 792.24 207.63 798.07 198.12   Q 802.83 190.35 803.20 182.05   C 803.36 178.43 802.46 173.84 798.18 173.76   C 795.53 173.71 792.53 174.98 790.21 176.47   Q 782.92 181.13 777.39 188.14   Q 771.24 195.94 765.61 206.06   C 764.56 207.94 764.16 209.63 762.99 211.46   Q 762.17 212.76 761.04 215.49   Q 758.31 222.09 757.29 224.73   A 0.43 0.43 0.0 0 0 757.69 225.31   Z   M 324.45 225.35   Q 326.24 225.44 328.00 225.15   Q 329.82 224.84 330.99 224.49   Q 333.61 223.71 338.22 221.65   Q 341.75 220.06 345.03 217.93   Q 354.90 211.54 362.65 201.96   Q 369.47 193.52 370.58 182.27   Q 370.68 181.25 370.10 180.35   A 1.58 1.56 27.9 0 1 369.86 179.59   Q 369.67 175.88 366.28 174.11   A 2.13 2.12 58.1 0 0 365.26 173.87   Q 361.02 173.94 357.21 176.22   C 350.33 180.35 344.53 187.34 339.93 193.91   Q 332.78 204.15 327.57 215.60   Q 325.18 220.86 324.01 224.72   A 0.49 0.49 0.0 0 0 324.45 225.35   Z"/>
<path fill="#c2b067" d="   M 417.58 334.00   L 412.63 334.00   Q 411.08 332.95 409.11 332.91   A 1.32 1.29 -13.7 0 1 408.01 332.26   Q 407.64 331.63 406.77 331.59   A 0.99 0.99 0.0 0 1 405.96 330.11   L 407.61 327.26   A 0.55 0.54 29.8 0 1 408.36 327.06   L 411.61 328.94   A 1.26 1.20 -29.0 0 0 412.22 329.10   L 416.77 329.10   A 0.63 0.63 0.0 0 0 417.37 328.66   Q 417.77 327.46 417.63 326.70   A 0.84 0.83 84.2 0 0 416.80 326.01   Q 415.56 326.01 415.24 325.69   A 1.76 0.84 55.3 0 0 414.26 325.13   Q 410.99 324.87 408.70 323.05   Q 407.31 321.94 407.16 319.59   Q 407.06 317.96 406.94 317.36   A 1.06 1.05 62.4 0 1 407.25 316.36   L 410.48 313.32   A 0.73 0.71 -67.2 0 1 410.95 313.12   C 415.49 312.83 417.45 312.53 421.76 314.50   A 1.39 1.38 -62.8 0 1 422.38 316.45   L 421.47 318.03   A 1.46 1.45 -59.1 0 1 419.45 318.54   C 416.86 316.93 413.83 315.46 411.94 319.05   A 0.77 0.77 0.0 0 0 412.12 319.99   Q 412.75 320.52 413.90 320.22   A 0.84 0.84 0.0 0 1 414.80 320.54   Q 415.34 321.29 416.57 321.18   A 1.79 1.78 -36.6 0 1 417.40 321.30   Q 420.80 322.66 422.17 324.56   Q 423.28 326.10 422.80 328.60   Q 422.41 330.67 421.28 332.02   C 420.57 332.88 418.66 332.81 417.58 334.00   Z"/>
<path fill="#c2b067" d="   M 361.74 334.00   L 356.79 334.00   L 352.63 331.93   A 6.20 6.19 7.7 0 1 349.33 327.60   Q 348.61 323.96 349.11 319.42   Q 349.21 318.55 351.63 315.37   A 0.95 0.84 3.5 0 1 352.00 315.08   L 356.41 313.07   A 0.38 0.38 0.0 0 1 356.58 313.03   L 362.93 313.03   A 1.46 1.45 68.0 0 1 363.98 313.48   Q 364.99 314.53 366.71 315.29   A 1.24 1.23 -62.9 0 1 367.27 317.04   L 366.17 318.95   A 1.20 1.20 0.0 0 1 364.53 319.39   Q 363.69 318.89 362.06 317.62   Q 360.00 316.02 357.17 317.35   Q 354.79 318.47 353.22 322.55   A 2.51 2.46 52.5 0 0 353.08 323.71   Q 353.74 328.81 358.72 329.23   Q 362.07 329.51 363.34 328.16   A 2.19 2.19 0.0 0 1 366.15 327.94   L 367.62 328.96   A 1.07 1.07 0.0 0 1 367.65 330.70   L 364.84 332.78   A 1.61 1.60 23.3 0 1 364.08 333.08   Q 362.77 333.23 361.74 334.00   Z"/>
<path fill="#c2b067" d="   M 388.94 334.00   L 384.30 334.00   Q 378.57 332.29 377.11 326.27   A 3.64 3.45 -53.7 0 1 377.00 325.39   L 377.00 313.40   A 0.39 0.39 0.0 0 1 377.39 313.01   L 381.23 313.01   A 0.41 0.41 0.0 0 1 381.64 313.42   L 381.64 324.86   A 4.52 4.52 0.0 0 0 386.16 329.38   L 386.87 329.38   A 3.99 3.98 -0.0 0 0 390.86 325.40   L 390.86 313.34   A 0.33 0.32 -90.0 0 1 391.18 313.01   L 395.05 313.01   A 0.47 0.46 89.4 0 1 395.51 313.47   Q 395.67 322.81 395.42 326.42   Q 395.28 328.44 393.02 331.87   A 1.26 1.21 3.2 0 1 392.51 332.31   L 388.94 334.00   Z"/>
<path fill="#c2b067" d="   M 437.46 332.77   L 437.46 317.23   A 0.34 0.34 0.0 0 0 437.12 316.89   L 432.26 316.89   A 0.34 0.34 0.0 0 1 431.92 316.55   L 431.92 313.34   A 0.34 0.34 0.0 0 1 432.26 313.00   L 448.28 313.00   A 0.34 0.34 0.0 0 1 448.62 313.34   L 448.62 316.55   A 0.34 0.34 0.0 0 1 448.28 316.89   L 442.60 316.89   A 0.34 0.34 0.0 0 0 442.26 317.23   L 442.26 332.77   A 0.34 0.34 0.0 0 1 441.92 333.11   L 437.80 333.11   A 0.34 0.34 0.0 0 1 437.46 332.77   Z"/>
<path fill="#c2b067" d="   M 469.59 334.00   L 464.79 334.00   L 460.57 332.25   A 2.44 2.37 -12.1 0 1 459.87 331.81   Q 455.12 327.49 456.21 321.18   Q 457.16 315.73 462.57 313.57   Q 464.91 312.63 470.01 313.08   A 2.85 2.61 57.5 0 1 470.94 313.33   Q 479.80 317.45 477.53 326.55   Q 476.21 331.83 469.59 334.00   Z   M 467.40 329.78   Q 467.90 329.02 469.26 329.16   A 1.59 1.59 0.0 0 0 470.39 328.83   Q 474.00 326.02 473.04 321.71   C 472.51 319.30 470.65 318.37 468.47 317.04   A 2.40 2.34 58.3 0 0 467.07 316.69   Q 464.43 316.87 461.95 319.49   A 1.33 1.31 67.1 0 0 461.59 320.40   C 461.62 322.07 459.50 323.60 461.44 325.40   A 0.68 0.68 0.0 0 1 461.65 326.01   Q 461.64 326.03 461.64 326.05   A 1.07 1.06 20.8 0 0 462.08 327.02   Q 463.39 327.97 463.83 328.78   A 0.74 0.73 72.2 0 0 464.58 329.17   Q 466.03 328.98 466.67 329.81   A 0.45 0.45 0.0 0 0 467.40 329.78   Z"/>
<path fill="#c2b067" d="   M 506.15 322.17   L 502.42 330.59   A 2.13 2.12 -48.1 0 1 498.64 330.80   L 493.08 321.16   A 0.05 0.05 0.0 0 0 492.99 321.19   L 492.99 332.79   A 0.34 0.33 0.0 0 1 492.65 333.12   L 488.54 333.12   A 0.38 0.37 0.0 0 1 488.16 332.75   L 488.16 313.53   A 0.54 0.53 -0.0 0 1 488.70 313.00   L 492.81 313.00   A 0.79 0.79 0.0 0 1 493.49 313.39   L 499.87 324.44   A 0.35 0.35 0.0 0 0 500.48 324.44   L 506.82 313.47   A 0.94 0.91 -74.7 0 1 507.62 313.00   L 510.93 313.00   A 0.68 0.68 0.0 0 1 511.61 313.68   L 511.61 332.57   A 0.54 0.54 0.0 0 1 511.07 333.11   L 507.43 333.11   A 0.63 0.63 0.0 0 1 506.84 332.26   Q 508.00 329.03 507.51 325.66   Q 507.43 325.12 507.28 322.38   A 0.59 0.59 0.0 0 0 506.15 322.17   Z"/>
<path fill="#c2b067" d="   M 548.22 322.00   Q 551.31 322.00 552.08 321.94   A 0.72 0.72 0.0 0 0 552.74 321.22   L 552.74 313.52   A 0.50 0.50 0.0 0 1 553.24 313.02   L 556.92 313.02   A 0.52 0.51 -0.0 0 1 557.44 313.53   L 557.44 332.82   A 0.30 0.30 0.0 0 1 557.14 333.12   L 553.03 333.12   A 0.32 0.32 0.0 0 1 552.71 332.80   L 552.78 325.81   A 0.14 0.14 0.0 0 0 552.54 325.70   Q 552.45 325.79 548.21 325.79   Q 543.98 325.78 543.89 325.70   A 0.14 0.14 0.0 0 0 543.65 325.80   L 543.71 332.79   A 0.32 0.32 0.0 0 1 543.39 333.11   L 539.28 333.11   A 0.30 0.30 0.0 0 1 538.98 332.81   L 539.00 313.52   A 0.52 0.51 0.1 0 1 539.52 313.01   L 543.20 313.01   A 0.50 0.50 0.0 0 1 543.70 313.51   L 543.69 321.21   A 0.72 0.72 0.0 0 0 544.35 321.93   Q 545.12 322.00 548.22 322.00   Z"/>
<path fill="#c2b067" d="   M 581.82 334.00   L 575.96 334.00   Q 571.71 332.40 570.23 330.78   Q 567.66 327.97 568.03 322.75   Q 568.06 322.43 567.96 322.27   Q 567.83 322.04 567.56 321.91   A 0.41 0.41 0.0 0 1 567.46 321.25   Q 567.48 321.23 567.72 321.12   A 0.65 0.64 82.9 0 0 568.08 320.65   Q 568.72 317.23 570.95 315.45   Q 574.01 313.01 576.45 312.99   Q 579.26 312.96 582.45 313.18   A 1.31 1.28 -19.0 0 1 583.29 313.58   L 584.28 314.63   A 0.61 0.60 67.7 0 0 584.75 314.83   C 586.85 314.79 587.31 317.93 588.24 318.16   A 0.79 0.79 0.0 0 1 588.84 318.95   Q 588.76 320.98 589.27 321.88   A 3.29 3.26 -46.5 0 1 589.34 324.95   Q 589.18 325.27 588.40 328.10   C 587.67 330.77 584.16 332.66 581.82 334.00   Z   M 572.18 323.44   Q 572.93 323.98 572.75 325.30   Q 572.62 326.20 573.36 327.09   Q 576.53 330.90 581.59 328.82   A 2.71 2.67 11.7 0 0 582.41 328.29   Q 583.90 326.88 584.79 324.17   A 1.63 1.63 0.0 0 0 584.82 323.22   Q 583.71 319.05 580.97 317.34   Q 579.56 316.46 576.81 316.91   A 1.04 1.01 18.0 0 0 576.26 317.18   L 573.19 320.06   A 0.85 0.84 -20.3 0 0 572.93 320.62   Q 572.80 322.08 572.13 322.71   A 0.48 0.47 -49.3 0 0 572.18 323.44   Z"/>
<path fill="#c2b067" d="   M 603.78 321.11   L 604.13 332.62   A 0.47 0.47 0.0 0 1 603.66 333.11   L 600.17 333.11   A 0.45 0.44 -0.0 0 1 599.72 332.67   L 599.72 313.68   A 0.68 0.68 0.0 0 1 600.40 313.00   L 603.35 313.00   A 1.11 1.09 74.7 0 1 604.30 313.55   L 607.69 319.43   A 0.54 0.51 -88.3 0 0 607.85 319.61   L 608.22 319.92   A 0.65 0.53 12.8 0 1 608.36 320.10   L 610.82 324.85   A 0.22 0.22 0.0 0 0 611.20 324.86   L 617.88 313.29   A 0.59 0.58 -75.0 0 1 618.39 312.99   L 621.89 312.99   A 0.56 0.55 90.0 0 1 622.44 313.55   L 622.44 332.81   A 0.34 0.34 0.0 0 1 622.07 333.15   Q 620.31 332.99 618.47 333.55   A 0.36 0.36 0.0 0 1 618.00 333.21   L 618.00 323.78   A 1.53 1.50 -25.1 0 1 618.37 322.79   Q 618.99 322.08 618.85 321.32   A 0.31 0.31 0.0 0 0 618.27 321.22   L 612.82 330.66   A 2.02 2.02 0.0 0 1 609.32 330.66   L 603.81 321.10   A 0.02 0.02 0.0 0 0 603.78 321.11   Z"/>
<path fill="#c2b067" d="   M 640.10 316.71   A 0.36 0.36 0.0 0 0 639.74 317.07   L 639.74 320.84   A 0.34 0.34 0.0 0 0 640.08 321.18   L 648.86 321.18   A 1.31 1.30 -0.0 0 1 650.17 322.48   L 650.17 323.97   A 2.01 2.01 0.0 0 1 648.16 325.98   L 640.47 325.98   A 0.79 0.78 0.0 0 0 639.68 326.76   L 639.68 328.35   A 0.74 0.74 0.0 0 0 640.42 329.09   L 650.69 329.09   A 0.30 0.30 0.0 0 1 650.99 329.39   L 650.99 332.83   A 0.29 0.29 0.0 0 1 650.70 333.12   L 635.63 333.12   A 0.56 0.56 0.0 0 1 635.07 332.56   L 635.07 313.60   A 0.60 0.60 0.0 0 1 635.67 313.00   L 649.62 313.00   A 0.48 0.47 -90.0 0 1 650.09 313.48   L 650.09 316.29   A 0.42 0.42 0.0 0 1 649.67 316.71   L 640.10 316.71   Z"/>
<path fill="#c2b067" d="   M 671.33 334.00   L 666.62 334.00   L 660.66 331.51   A 1.21 1.20 -63.9 0 1 660.08 329.80   L 661.49 327.37   A 0.76 0.75 -59.9 0 1 662.52 327.09   L 666.01 329.11   A 0.88 0.79 -29.4 0 0 666.45 329.21   L 670.58 329.06   A 1.36 1.35 67.2 0 0 671.51 326.77   L 670.94 326.16   A 0.70 0.69 -14.3 0 0 670.60 325.96   L 663.40 324.12   A 1.00 0.99 75.0 0 1 662.92 323.84   Q 658.48 319.17 662.80 314.55   A 2.20 2.15 9.4 0 1 663.53 314.04   C 667.02 312.51 672.71 312.27 675.84 314.97   A 0.79 0.79 0.0 0 1 676.09 315.79   L 675.36 318.36   A 0.60 0.59 7.3 0 1 674.80 318.79   Q 672.99 318.87 672.39 317.75   A 1.30 1.28 82.9 0 0 671.56 317.09   Q 667.76 316.11 665.72 318.19   A 1.55 1.25 16.6 0 0 667.20 320.34   Q 669.57 320.25 671.15 321.66   A 1.71 1.69 64.9 0 0 672.34 322.10   C 676.55 322.01 676.23 327.28 675.92 330.08   A 3.18 2.89 -88.0 0 1 673.18 332.89   Q 672.43 332.94 671.33 334.00   Z"/>
</svg>